<svg xmlns="http://www.w3.org/2000/svg" xmlns:xlink="http://www.w3.org/1999/xlink" width="36" height="36" viewBox="0 0 36 36">
  <defs>
    <clipPath id="clip-path">
      <rect id="Rectangle_27" data-name="Rectangle 27" width="36" height="36" transform="translate(263 470)" fill="#fff"/>
    </clipPath>
  </defs>
  <g id="Mask_Group_15" data-name="Mask Group 15" transform="translate(-263 -470)" clip-path="url(#clip-path)">
    <g id="support_1_" data-name="support (1)" transform="translate(263 470)">
      <g id="Group_45" data-name="Group 45">
        <g id="Group_44" data-name="Group 44">
          <path id="Path_922" data-name="Path 922" d="M30.857,13.854a12.857,12.857,0,1,0-25.714-.032v.032A5.457,5.457,0,0,0,0,19.286v.643a5.46,5.46,0,0,0,5.464,5.464h.289l2.282,3.632A8.6,8.6,0,0,0,15.4,33.107h.45a2.571,2.571,0,1,0,0-1.286H15.4a7.334,7.334,0,0,1-6.268-3.5L7.264,25.393h.45A1.289,1.289,0,0,0,9,24.107v-9a1.289,1.289,0,0,0-1.286-1.286H6.429a11.571,11.571,0,0,1,23.143,0H28.286A1.289,1.289,0,0,0,27,15.107v9a1.289,1.289,0,0,0,1.286,1.286h2.25A5.46,5.46,0,0,0,36,19.929v-.643A5.457,5.457,0,0,0,30.857,13.854ZM18.321,31.179a1.286,1.286,0,1,1-1.286,1.286A1.289,1.289,0,0,1,18.321,31.179ZM7.714,15.107v9H5.464a4.17,4.17,0,0,1-4.179-4.179v-.643a4.17,4.17,0,0,1,4.179-4.179Zm27,4.821a4.17,4.17,0,0,1-4.179,4.179h-2.25v-9h2.25a4.17,4.17,0,0,1,4.179,4.179Z" fill="#fff"/>
          <path id="Path_923" data-name="Path 923" d="M23.336,5.818a2.965,2.965,0,0,1-.257-.161,2.965,2.965,0,0,0-.257-.161.6.6,0,0,0-.868.225.631.631,0,0,0,.225.868,2.965,2.965,0,0,1,.257.161,1.3,1.3,0,0,0,.289.161.62.62,0,0,0,.321.1.6.6,0,0,0,.546-.321A.649.649,0,0,0,23.336,5.818Z" fill="#f13828"/>
          <path id="Path_924" data-name="Path 924" d="M18,4.179a9.309,9.309,0,0,0-7.071,3.246.652.652,0,0,0,.064.9.677.677,0,0,0,.418.161.578.578,0,0,0,.482-.225A8.109,8.109,0,0,1,18,5.464a7.979,7.979,0,0,1,1.736.193.682.682,0,0,0,.771-.482.671.671,0,0,0-.482-.771A8.693,8.693,0,0,0,18,4.179Z" fill="#f13828"/>
        </g>
      </g>
    </g>
  </g>
</svg>
