<svg xmlns="http://www.w3.org/2000/svg" xmlns:xlink="http://www.w3.org/1999/xlink" width="36" height="36" viewBox="0 0 36 36">
  <defs>
    <clipPath id="clip-path">
      <rect id="Rectangle_24" data-name="Rectangle 24" width="36" height="36" transform="translate(76 364)" fill="#fff"/>
    </clipPath>
  </defs>
  <g id="Mask_Group_12" data-name="Mask Group 12" transform="translate(-76 -364)" clip-path="url(#clip-path)">
    <g id="active" transform="translate(76 364)">
      <path id="Path_911" data-name="Path 911" d="M15,36a5.632,5.632,0,0,1-5.625-5.625,1.125,1.125,0,0,1,2.25,0,3.375,3.375,0,0,0,6.75,0,1.125,1.125,0,0,1,2.25,0A5.632,5.632,0,0,1,15,36Zm0,0" fill="#f13828" stroke="#2d2d2e" stroke-width="0.5"/>
      <path id="Path_912" data-name="Path 912" d="M27.375,31.5H2.625A2.626,2.626,0,0,1,.918,26.88a1.037,1.037,0,0,1,.12-.09A10.081,10.081,0,0,0,4.5,19.185V15A10.433,10.433,0,0,1,12.551,4.8a1.125,1.125,0,0,1,.519,2.19A8.19,8.19,0,0,0,6.75,15v4.185A12.337,12.337,0,0,1,2.4,28.591c-.023.018-.042.035-.066.051a.371.371,0,0,0-.079.233.379.379,0,0,0,.375.375h24.75a.379.379,0,0,0,.375-.375.358.358,0,0,0-.081-.233c-.023-.016-.044-.033-.065-.051a12.233,12.233,0,0,1-3.151-4.111,1.124,1.124,0,1,1,2.032-.962,10.026,10.026,0,0,0,2.479,3.276,1.3,1.3,0,0,1,.114.085,2.624,2.624,0,0,1-1.7,4.62Zm0,0" fill="#fff" stroke="#2d2d2e" stroke-width="0.5"/>
      <path id="Path_913" data-name="Path 913" d="M26.25,19.5A9.75,9.75,0,1,1,36,9.75,9.761,9.761,0,0,1,26.25,19.5Zm0-17.25a7.5,7.5,0,1,0,7.5,7.5A7.508,7.508,0,0,0,26.25,2.25Zm0,0" fill="#f13828" stroke="#2d2d2e" stroke-width="0.5"/>
      <path id="Path_914" data-name="Path 914" d="M26.625,14.25A1.125,1.125,0,0,1,25.5,13.125V8.25h-.75a1.125,1.125,0,0,1,0-2.25h1.875A1.125,1.125,0,0,1,27.75,7.125v6A1.125,1.125,0,0,1,26.625,14.25Zm0,0" fill="#fff" stroke="#2d2d2e" stroke-width="0.5"/>
    </g>
  </g>
</svg>
