<svg xmlns="http://www.w3.org/2000/svg" xmlns:xlink="http://www.w3.org/1999/xlink" width="36" height="36" viewBox="0 0 36 36">
  <defs>
    <clipPath id="clip-path">
      <rect id="Rectangle_23" data-name="Rectangle 23" width="36" height="36" transform="translate(255 144)" fill="#fff"/>
    </clipPath>
  </defs>
  <g id="Mask_Group_9" data-name="Mask Group 9" transform="translate(-255 -144)" clip-path="url(#clip-path)">
    <g id="avatar" transform="translate(257.689 144)">
      <g id="Group_37" data-name="Group 37" transform="translate(0)">
        <path id="Path_888" data-name="Path 888" d="M22.411,19.4h.239a6.879,6.879,0,0,0,5.256-2.274c2.87-3.235,2.393-8.782,2.341-9.311-.186-3.973-2.065-5.875-3.616-6.762A8.289,8.289,0,0,0,22.62,0h-.127a8.3,8.3,0,0,0-4.011,1.021c-1.566.887-3.474,2.788-3.66,6.791-.052.529-.529,6.076,2.341,9.311A6.852,6.852,0,0,0,22.411,19.4ZM16.813,8c0-.022.007-.045.007-.06.246-5.345,4.041-5.919,5.666-5.919h.089c2.013.045,5.435.865,5.666,5.919a.145.145,0,0,0,.007.06c.007.052.529,5.122-1.841,7.79a4.886,4.886,0,0,1-3.839,1.6h-.075a4.87,4.87,0,0,1-3.832-1.6C16.3,13.136,16.805,8.044,16.813,8Z" transform="translate(-7.231)" fill="#f13828"/>
        <path id="Path_889" data-name="Path 889" d="M34.5,37.187v-.022c0-.06-.007-.119-.007-.186-.045-1.476-.142-4.928-3.377-6.031l-.075-.022a21.511,21.511,0,0,1-6.188-2.818A1.006,1.006,0,0,0,23.7,29.754a23.219,23.219,0,0,0,6.806,3.109c1.737.619,1.931,2.475,1.983,4.175a1.5,1.5,0,0,0,.007.186,13.532,13.532,0,0,1-.157,2.3A27.436,27.436,0,0,1,19.2,42.584,27.594,27.594,0,0,1,6.048,39.52a12.81,12.81,0,0,1-.157-2.3c0-.06.007-.119.007-.186.052-1.7.246-3.556,1.983-4.175a23.435,23.435,0,0,0,6.806-3.109A1.006,1.006,0,1,0,13.533,28.1a21.275,21.275,0,0,1-6.188,2.818c-.03.007-.052.015-.075.022C4.036,32.05,3.939,35.5,3.894,36.971a1.5,1.5,0,0,1-.007.186v.022a11.432,11.432,0,0,0,.38,3.377.956.956,0,0,0,.388.47c.224.149,5.584,3.563,14.552,3.563s14.328-3.422,14.552-3.563a1,1,0,0,0,.388-.47A11.994,11.994,0,0,0,34.5,37.187Z" transform="translate(-3.884 -8.59)" fill="#fff"/>
      </g>
    </g>
  </g>
</svg>
