<svg xmlns="http://www.w3.org/2000/svg" xmlns:xlink="http://www.w3.org/1999/xlink" width="36" height="36" viewBox="0 0 36 36">
  <defs>
    <clipPath id="clip-path">
      <rect id="Rectangle_26" data-name="Rectangle 26" width="36" height="36" transform="translate(76 470)" fill="#fff"/>
    </clipPath>
  </defs>
  <g id="Mask_Group_14" data-name="Mask Group 14" transform="translate(-76 -470)" clip-path="url(#clip-path)">
    <g id="speech-bubble_1_" data-name="speech-bubble (1)" transform="translate(76 470)">
      <g id="Group_43" data-name="Group 43">
        <path id="Path_920" data-name="Path 920" d="M29.029,19.228V6.007a3.33,3.33,0,0,0-3.324-3.324H3.324A3.33,3.33,0,0,0,0,6.007V19.228a3.33,3.33,0,0,0,3.324,3.324h.949v3.985A1.332,1.332,0,0,0,5.61,27.868h0A1.343,1.343,0,0,0,6.618,27.4l4.2-4.86h14.9A3.317,3.317,0,0,0,29.029,19.228ZM10.4,20.75a.9.9,0,0,0-.684.309L6.066,25.272V21.647a.9.9,0,0,0-.9-.9H3.324A1.525,1.525,0,0,1,1.8,19.221V6.007A1.525,1.525,0,0,1,3.324,4.485H25.706a1.525,1.525,0,0,1,1.522,1.522V19.228a1.525,1.525,0,0,1-1.522,1.522Z" fill="#fff"/>
        <path id="Path_921" data-name="Path 921" d="M29.39,32.853a1.314,1.314,0,0,0,1,.463,1.332,1.332,0,0,0,.471-.088,1.318,1.318,0,0,0,.868-1.25V27.993h.949A3.33,3.33,0,0,0,36,24.669V11.449a3.33,3.33,0,0,0-3.324-3.324.9.9,0,1,0,0,1.8A1.525,1.525,0,0,1,34.2,11.449V24.669a1.525,1.525,0,0,1-1.522,1.522H30.831a.9.9,0,0,0-.9.9v3.625l-3.647-4.213A.893.893,0,0,0,25.6,26.2H12.066a.9.9,0,1,0,0,1.809H25.184Z" fill="#f13828"/>
        <circle id="Ellipse_13" data-name="Ellipse 13" cx="1.074" cy="1.074" r="1.074" transform="translate(13.441 11.86)" fill="#f13828"/>
        <circle id="Ellipse_14" data-name="Ellipse 14" cx="1.074" cy="1.074" r="1.074" transform="translate(17.037 11.86)" fill="#f13828"/>
        <circle id="Ellipse_15" data-name="Ellipse 15" cx="1.074" cy="1.074" r="1.074" transform="translate(9.846 11.86)" fill="#f13828"/>
      </g>
    </g>
  </g>
</svg>
