<svg xmlns="http://www.w3.org/2000/svg" xmlns:xlink="http://www.w3.org/1999/xlink" width="36" height="36" viewBox="0 0 36 36">
  <defs>
    <clipPath id="clip-path">
      <rect id="Rectangle_22" data-name="Rectangle 22" width="36" height="36" transform="translate(76 258)" fill="#fff"/>
    </clipPath>
  </defs>
  <g id="Mask_Group_17" data-name="Mask Group 17" transform="translate(-76 -258)" clip-path="url(#clip-path)">
    <g id="car_1_" data-name="car (1)" transform="translate(76 264.999)">
      <g id="Group_40" data-name="Group 40">
        <path id="Path_890" data-name="Path 890" d="M24.477,24.145H12.009a.545.545,0,0,1,0-1.091H24.477a.545.545,0,0,1,0,1.091Z" fill="#fff" stroke="#fff" stroke-width="0.5"/>
        <path id="Path_891" data-name="Path 891" d="M9.041,27.113A3.514,3.514,0,1,1,12.555,23.6,3.517,3.517,0,0,1,9.041,27.113Zm0-5.937A2.423,2.423,0,1,0,11.464,23.6,2.425,2.425,0,0,0,9.041,21.176Z" fill="#fff" stroke="#fff" stroke-width="0.5"/>
        <path id="Path_892" data-name="Path 892" d="M27.446,27.113A3.514,3.514,0,1,1,30.96,23.6,3.517,3.517,0,0,1,27.446,27.113Zm0-5.937A2.423,2.423,0,1,0,29.869,23.6,2.425,2.425,0,0,0,27.446,21.176Z" fill="#fff" stroke="#fff" stroke-width="0.5"/>
      </g>
      <path id="Path_893" data-name="Path 893" d="M24.482,24.145H12.011a.545.545,0,0,1,0-1.091H24.483a.545.545,0,1,1,0,1.091Z" fill="#fff" stroke="#fff" stroke-width="0.5"/>
      <path id="Path_894" data-name="Path 894" d="M33.033,24.145H30.411a.545.545,0,1,1,0-1.091h2.623A1.353,1.353,0,0,0,34.377,21.9l.515-3.291a1.36,1.36,0,0,0-1.2-1.563l-7.921-.859a.554.554,0,0,1-.292-.124l-6.608-5.554a2.275,2.275,0,0,0-1.46-.531H6.532a1.51,1.51,0,0,0-1.246.657l-3.958,5.77a1.35,1.35,0,0,0-.221.98l.7,4.517a1.356,1.356,0,0,0,1.345,1.152H6.068a.545.545,0,1,1,0,1.091H3.158A2.441,2.441,0,0,1,.734,22.072l-.7-4.517a2.443,2.443,0,0,1,.4-1.766l3.958-5.77A2.6,2.6,0,0,1,6.532,8.89H17.415a3.355,3.355,0,0,1,2.16.788l6.48,5.447,7.755.841a2.452,2.452,0,0,1,2.16,2.817l-.515,3.291A2.438,2.438,0,0,1,33.033,24.145Z" fill="#fff" stroke="#fff" stroke-width="0.5"/>
      <path id="Path_895" data-name="Path 895" d="M21.017,16.613H5.234a.545.545,0,1,1,0-1.091H21.017a.545.545,0,0,1,0,1.091Z" fill="#f13828" stroke="#f13828" stroke-width="0.5"/>
    </g>
    <g id="water" transform="translate(96.563 258.863)">
      <path id="Path_927" data-name="Path 927" d="M4.476,11.3c2.6,0,4.038-1.53,4.038-4.308,0-2.6-3.681-6.736-3.838-6.91a.278.278,0,0,0-.4,0C4.119.26.438,4.395.438,7,.438,9.774,1.872,11.3,4.476,11.3Zm0-10.628c.771.9,3.5,4.252,3.5,6.32,0,1.72-.607,3.769-3.5,3.769S.976,8.715.976,7C.976,4.928,3.705,1.58,4.476.676Zm0,0" transform="translate(0)" fill="#fff" stroke="#fff" stroke-width="0.5"/>
      <path id="Path_928" data-name="Path 928" d="M274.861,150.981c1.54,0,2.423-1.028,2.423-2.82,0-1.683-2.135-4-2.226-4.094a.277.277,0,0,0-.394,0c-.091.1-2.226,2.411-2.226,4.094C272.438,149.953,273.321,150.981,274.861,150.981Zm0-6.324c.519.6,1.885,2.307,1.885,3.5,0,1.514-.634,2.281-1.885,2.281s-1.885-.768-1.885-2.281C272.976,146.963,274.341,145.261,274.861,144.656Zm0,0" transform="translate(-262.846 -139.139)" fill="#fff" stroke="#fff" stroke-width="0.5"/>
      <path id="Path_929" data-name="Path 929" d="M178.12,320.083c-.069.078-1.683,1.921-1.683,3.14,0,1.369.687,2.154,1.885,2.154s1.885-.785,1.885-2.154c0-1.219-1.614-3.062-1.683-3.14a.278.278,0,0,0-.4,0Zm.2,4.755c-.893,0-1.346-.544-1.346-1.615a5.639,5.639,0,0,1,1.346-2.544,5.624,5.624,0,0,1,1.346,2.544C179.668,324.295,179.215,324.838,178.322,324.838Zm0,0" transform="translate(-170.077 -309.227)" fill="#f13828" stroke="#f13828" stroke-width="0.5"/>
    </g>
  </g>
</svg>
